<svg width="83" height="22" viewBox="0 0 83 22" fill="none" xmlns="http://www.w3.org/2000/svg">
<path d="M27.3921 17C27.2601 17 27.1581 16.964 27.0861 16.892C27.0141 16.808 26.9781 16.706 26.9781 16.586V4.832C26.9781 4.7 27.0141 4.598 27.0861 4.526C27.1581 4.442 27.2601 4.4 27.3921 4.4H31.7841C33.1401 4.4 34.2141 4.718 35.0061 5.354C35.7981 5.99 36.1941 6.932 36.1941 8.18C36.1941 9.104 35.9601 9.86 35.4921 10.448C35.0361 11.024 34.4121 11.426 33.6201 11.654L36.3921 16.442C36.4281 16.514 36.4461 16.58 36.4461 16.64C36.4461 16.736 36.4041 16.82 36.3201 16.892C36.2481 16.964 36.1641 17 36.0681 17H35.2041C35.0001 17 34.8501 16.946 34.7541 16.838C34.6581 16.73 34.5741 16.622 34.5021 16.514L31.8921 11.942H28.7421V16.586C28.7421 16.706 28.7001 16.808 28.6161 16.892C28.5441 16.964 28.4421 17 28.3101 17H27.3921ZM28.7421 10.412H31.7121C32.6121 10.412 33.2841 10.226 33.7281 9.854C34.1721 9.47 34.3941 8.906 34.3941 8.162C34.3941 7.43 34.1721 6.872 33.7281 6.488C33.2961 6.104 32.6241 5.912 31.7121 5.912H28.7421V10.412ZM42.1596 17.18C40.9236 17.18 39.9396 16.802 39.2076 16.046C38.4756 15.278 38.0736 14.234 38.0016 12.914C37.9896 12.758 37.9836 12.56 37.9836 12.32C37.9836 12.068 37.9896 11.864 38.0016 11.708C38.0496 10.856 38.2476 10.112 38.5956 9.476C38.9436 8.828 39.4176 8.33 40.0176 7.982C40.6296 7.634 41.3436 7.46 42.1596 7.46C43.0716 7.46 43.8336 7.652 44.4456 8.036C45.0696 8.42 45.5436 8.966 45.8676 9.674C46.1916 10.382 46.3536 11.21 46.3536 12.158V12.464C46.3536 12.596 46.3116 12.698 46.2276 12.77C46.1556 12.842 46.0596 12.878 45.9396 12.878H39.7116C39.7116 12.89 39.7116 12.914 39.7116 12.95C39.7116 12.986 39.7116 13.016 39.7116 13.04C39.7356 13.532 39.8436 13.994 40.0356 14.426C40.2276 14.846 40.5036 15.188 40.8636 15.452C41.2236 15.716 41.6556 15.848 42.1596 15.848C42.5916 15.848 42.9516 15.782 43.2396 15.65C43.5276 15.518 43.7616 15.374 43.9416 15.218C44.1216 15.05 44.2416 14.924 44.3016 14.84C44.4096 14.684 44.4936 14.594 44.5536 14.57C44.6136 14.534 44.7096 14.516 44.8416 14.516H45.7056C45.8256 14.516 45.9216 14.552 45.9936 14.624C46.0776 14.684 46.1136 14.774 46.1016 14.894C46.0896 15.074 45.9936 15.296 45.8136 15.56C45.6336 15.812 45.3756 16.064 45.0396 16.316C44.7036 16.568 44.2956 16.778 43.8156 16.946C43.3356 17.102 42.7836 17.18 42.1596 17.18ZM39.7116 11.636H44.6436V11.582C44.6436 11.042 44.5416 10.562 44.3376 10.142C44.1456 9.722 43.8636 9.392 43.4916 9.152C43.1196 8.9 42.6756 8.774 42.1596 8.774C41.6436 8.774 41.1996 8.9 40.8276 9.152C40.4676 9.392 40.1916 9.722 39.9996 10.142C39.8076 10.562 39.7116 11.042 39.7116 11.582V11.636ZM48.9378 20.42C48.8178 20.42 48.7158 20.378 48.6318 20.294C48.5598 20.222 48.5238 20.126 48.5238 20.006V8.054C48.5238 7.934 48.5598 7.838 48.6318 7.766C48.7158 7.682 48.8178 7.64 48.9378 7.64H49.7658C49.8858 7.64 49.9818 7.682 50.0538 7.766C50.1378 7.838 50.1798 7.934 50.1798 8.054V8.846C50.4678 8.45 50.8518 8.12 51.3318 7.856C51.8118 7.592 52.4118 7.46 53.1318 7.46C53.8038 7.46 54.3738 7.574 54.8418 7.802C55.3218 8.03 55.7118 8.342 56.0118 8.738C56.3238 9.134 56.5578 9.584 56.7138 10.088C56.8698 10.592 56.9538 11.132 56.9658 11.708C56.9778 11.9 56.9838 12.104 56.9838 12.32C56.9838 12.536 56.9778 12.74 56.9658 12.932C56.9538 13.496 56.8698 14.036 56.7138 14.552C56.5578 15.056 56.3238 15.506 56.0118 15.902C55.7118 16.286 55.3218 16.598 54.8418 16.838C54.3738 17.066 53.8038 17.18 53.1318 17.18C52.4358 17.18 51.8478 17.054 51.3678 16.802C50.8998 16.538 50.5158 16.214 50.2158 15.83V20.006C50.2158 20.126 50.1798 20.222 50.1078 20.294C50.0358 20.378 49.9338 20.42 49.8018 20.42H48.9378ZM52.7538 15.722C53.3778 15.722 53.8638 15.59 54.2118 15.326C54.5718 15.05 54.8298 14.696 54.9858 14.264C55.1418 13.82 55.2318 13.346 55.2558 12.842C55.2678 12.494 55.2678 12.146 55.2558 11.798C55.2318 11.294 55.1418 10.826 54.9858 10.394C54.8298 9.95 54.5718 9.596 54.2118 9.332C53.8638 9.056 53.3778 8.918 52.7538 8.918C52.1658 8.918 51.6858 9.056 51.3138 9.332C50.9538 9.608 50.6838 9.962 50.5038 10.394C50.3358 10.814 50.2398 11.246 50.2158 11.69C50.2038 11.882 50.1978 12.11 50.1978 12.374C50.1978 12.638 50.2038 12.872 50.2158 13.076C50.2278 13.496 50.3238 13.91 50.5038 14.318C50.6958 14.726 50.9778 15.062 51.3498 15.326C51.7218 15.59 52.1898 15.722 52.7538 15.722ZM63.0625 17.18C62.1505 17.18 61.3885 17.006 60.7765 16.658C60.1645 16.31 59.6965 15.83 59.3725 15.218C59.0485 14.594 58.8685 13.886 58.8325 13.094C58.8205 12.89 58.8145 12.632 58.8145 12.32C58.8145 11.996 58.8205 11.738 58.8325 11.546C58.8685 10.742 59.0485 10.034 59.3725 9.422C59.7085 8.81 60.1825 8.33 60.7945 7.982C61.4065 7.634 62.1625 7.46 63.0625 7.46C63.9625 7.46 64.7185 7.634 65.3305 7.982C65.9425 8.33 66.4105 8.81 66.7345 9.422C67.0705 10.034 67.2565 10.742 67.2925 11.546C67.3045 11.738 67.3105 11.996 67.3105 12.32C67.3105 12.632 67.3045 12.89 67.2925 13.094C67.2565 13.886 67.0765 14.594 66.7525 15.218C66.4285 15.83 65.9605 16.31 65.3485 16.658C64.7365 17.006 63.9745 17.18 63.0625 17.18ZM63.0625 15.794C63.8065 15.794 64.4005 15.56 64.8445 15.092C65.2885 14.612 65.5285 13.916 65.5645 13.004C65.5765 12.824 65.5825 12.596 65.5825 12.32C65.5825 12.044 65.5765 11.816 65.5645 11.636C65.5285 10.724 65.2885 10.034 64.8445 9.566C64.4005 9.086 63.8065 8.846 63.0625 8.846C62.3185 8.846 61.7185 9.086 61.2625 9.566C60.8185 10.034 60.5845 10.724 60.5605 11.636C60.5485 11.816 60.5425 12.044 60.5425 12.32C60.5425 12.596 60.5485 12.824 60.5605 13.004C60.5845 13.916 60.8185 14.612 61.2625 15.092C61.7185 15.56 62.3185 15.794 63.0625 15.794ZM69.9784 17C69.8584 17 69.7564 16.964 69.6724 16.892C69.6004 16.808 69.5644 16.706 69.5644 16.586V8.072C69.5644 7.952 69.6004 7.85 69.6724 7.766C69.7564 7.682 69.8584 7.64 69.9784 7.64H70.8064C70.9264 7.64 71.0284 7.682 71.1124 7.766C71.1964 7.85 71.2384 7.952 71.2384 8.072V8.864C71.4784 8.456 71.8084 8.15 72.2284 7.946C72.6484 7.742 73.1524 7.64 73.7404 7.64H74.4604C74.5804 7.64 74.6764 7.682 74.7484 7.766C74.8204 7.838 74.8564 7.934 74.8564 8.054V8.792C74.8564 8.912 74.8204 9.008 74.7484 9.08C74.6764 9.152 74.5804 9.188 74.4604 9.188H73.3804C72.7324 9.188 72.2224 9.38 71.8504 9.764C71.4784 10.136 71.2924 10.646 71.2924 11.294V16.586C71.2924 16.706 71.2504 16.808 71.1664 16.892C71.0824 16.964 70.9804 17 70.8604 17H69.9784ZM80.0563 17C79.3843 17 78.8383 16.874 78.4183 16.622C77.9983 16.358 77.6923 15.992 77.5003 15.524C77.3083 15.044 77.2123 14.48 77.2123 13.832V9.08H75.8083C75.6883 9.08 75.5863 9.044 75.5023 8.972C75.4303 8.888 75.3943 8.786 75.3943 8.666V8.054C75.3943 7.934 75.4303 7.838 75.5023 7.766C75.5863 7.682 75.6883 7.64 75.8083 7.64H77.2123V4.634C77.2123 4.514 77.2483 4.418 77.3203 4.346C77.4043 4.262 77.5063 4.22 77.6263 4.22H78.4723C78.5923 4.22 78.6883 4.262 78.7603 4.346C78.8443 4.418 78.8863 4.514 78.8863 4.634V7.64H81.1183C81.2383 7.64 81.3343 7.682 81.4063 7.766C81.4903 7.838 81.5323 7.934 81.5323 8.054V8.666C81.5323 8.786 81.4903 8.888 81.4063 8.972C81.3343 9.044 81.2383 9.08 81.1183 9.08H78.8863V13.706C78.8863 14.27 78.9823 14.714 79.1743 15.038C79.3663 15.362 79.7083 15.524 80.2003 15.524H81.2983C81.4183 15.524 81.5143 15.566 81.5863 15.65C81.6703 15.722 81.7123 15.818 81.7123 15.938V16.586C81.7123 16.706 81.6703 16.808 81.5863 16.892C81.5143 16.964 81.4183 17 81.2983 17H80.0563Z" fill="white"/>
<path d="M16.5 20.1666C16.9862 20.1666 17.4525 19.9734 17.7964 19.6296C18.1402 19.2858 18.3333 18.8195 18.3333 18.3333V7.33325L12.8333 1.83325H5.49999C5.01376 1.83325 4.54744 2.02641 4.20363 2.37022C3.85981 2.71404 3.66666 3.18035 3.66666 3.66659V18.3333C3.66666 18.8195 3.85981 19.2858 4.20363 19.6296C4.54744 19.9734 5.01376 20.1666 5.49999 20.1666H16.5ZM11.9167 3.66659L16.5 8.24992H11.9167V3.66659ZM6.41666 7.33325H9.16666V9.16658H6.41666V7.33325ZM6.41666 10.9999H15.5833V12.8333H6.41666V10.9999ZM6.41666 14.6666H15.5833V16.4999H6.41666V14.6666Z" fill="white"/>
</svg>
