<svg width="14" height="14" viewBox="0 0 14 14" fill="none" xmlns="http://www.w3.org/2000/svg">
<path fill-rule="evenodd" clip-rule="evenodd" d="M7 0C7.11651 7.2808e-05 7.23152 0.0263204 7.33652 0.0768036C7.44153 0.127287 7.53385 0.200716 7.60667 0.291667L10.7178 4.18056C10.7854 4.25978 10.8365 4.3518 10.8679 4.45113C10.8993 4.55047 10.9104 4.6551 10.9006 4.75882C10.8908 4.86255 10.8603 4.96324 10.8108 5.05493C10.7613 5.14662 10.6939 5.22744 10.6126 5.29258C10.5313 5.35773 10.4378 5.40588 10.3375 5.43417C10.2372 5.46246 10.1323 5.47032 10.0289 5.45728C9.92559 5.44424 9.82589 5.41057 9.73579 5.35826C9.64569 5.30595 9.56702 5.23607 9.50445 5.15278L7.77778 2.99444V8.55556C7.77778 8.76184 7.69583 8.95967 7.54997 9.10553C7.40411 9.25139 7.20628 9.33333 7 9.33333C6.79372 9.33333 6.59589 9.25139 6.45003 9.10553C6.30417 8.95967 6.22222 8.76184 6.22222 8.55556V2.99444L4.49556 5.15356C4.43298 5.23685 4.35431 5.30673 4.26421 5.35904C4.17411 5.41135 4.07441 5.44502 3.97105 5.45806C3.86769 5.4711 3.76276 5.46324 3.66249 5.43495C3.56222 5.40665 3.46866 5.35851 3.38735 5.29336C3.30605 5.22821 3.23867 5.1474 3.1892 5.05571C3.13973 4.96402 3.10918 4.86332 3.09938 4.7596C3.08957 4.65588 3.1007 4.55125 3.13211 4.45191C3.16352 4.35258 3.21457 4.26056 3.28222 4.18133L6.39333 0.292444C6.46608 0.201351 6.55836 0.127774 6.66337 0.0771541C6.76838 0.0265341 6.88343 0.000166135 7 0ZM4.66667 8.55556V7.77778H1.55556C1.143 7.77778 0.747335 7.94167 0.455612 8.23339C0.163888 8.52511 0 8.92077 0 9.33333V12.4444C0 12.857 0.163888 13.2527 0.455612 13.5444C0.747335 13.8361 1.143 14 1.55556 14H12.4444C12.857 14 13.2527 13.8361 13.5444 13.5444C13.8361 13.2527 14 12.857 14 12.4444V9.33333C14 8.92077 13.8361 8.52511 13.5444 8.23339C13.2527 7.94167 12.857 7.77778 12.4444 7.77778H9.33333V8.55556C9.33333 9.17439 9.0875 9.76789 8.64992 10.2055C8.21233 10.6431 7.61884 10.8889 7 10.8889C6.38116 10.8889 5.78767 10.6431 5.35008 10.2055C4.9125 9.76789 4.66667 9.17439 4.66667 8.55556ZM10.8889 10.1111C10.6826 10.1111 10.4848 10.1931 10.3389 10.3389C10.1931 10.4848 10.1111 10.6826 10.1111 10.8889C10.1111 11.0952 10.1931 11.293 10.3389 11.4389C10.4848 11.5847 10.6826 11.6667 10.8889 11.6667H10.8967C11.1029 11.6667 11.3008 11.5847 11.4466 11.4389C11.5925 11.293 11.6744 11.0952 11.6744 10.8889C11.6744 10.6826 11.5925 10.4848 11.4466 10.3389C11.3008 10.1931 11.1029 10.1111 10.8967 10.1111H10.8889Z" fill="black"/>
</svg>
