<svg width="40" height="37" viewBox="0 0 40 37" fill="none" xmlns="http://www.w3.org/2000/svg">
<rect x="0.5" y="0.5" width="39" height="36" rx="4.5" stroke="#575F6E"/>
<path d="M22.8804 9.95907L15.6101 17.2314L14.873 17.967L14.739 18.1007L12.1927 23.3836C12.0219 23.7227 11.9625 24.107 12.0231 24.4818C12.0836 24.8565 12.2609 25.2027 12.5299 25.4712C12.7989 25.7396 13.1458 25.9166 13.5213 25.977C13.8968 26.0374 14.2819 25.9781 14.6217 25.8077L19.8818 23.2498L20.7697 22.3638L21.49 21.6449L28.7603 14.3559L29.5141 13.6203L29.9329 13.2023C30.6162 12.5191 31 11.5932 31 10.6278C31 9.66243 30.6162 8.73651 29.9329 8.05323C29.2515 7.37812 28.3301 6.99948 27.3699 7C26.4046 6.9987 25.4777 7.37712 24.7901 8.05323L23.6175 9.20677L22.8636 9.94236L22.8804 9.95907ZM14.4207 23.5507L16.3974 19.4883L18.4914 21.5947L14.4207 23.5507ZM17.7711 17.9335L24.3043 11.3968L26.482 13.5869L20.0158 20.2072L17.7711 17.9335ZM27.2861 9.05631C27.4885 9.05562 27.6891 9.09519 27.876 9.17268C28.063 9.25018 28.2326 9.36407 28.375 9.50769C28.6645 9.7989 28.8269 10.1925 28.8269 10.6027C28.8269 11.0129 28.6645 11.4065 28.375 11.6977L27.9562 12.099L25.7784 9.92564L26.1972 9.50769C26.3484 9.35911 26.5299 9.24486 26.7294 9.17273C26.9289 9.1006 27.1417 9.07229 27.3531 9.08974L27.2861 9.05631Z" fill="#575F6E"/>
</svg>
