<svg width="17" height="17" viewBox="0 0 17 17" fill="none" xmlns="http://www.w3.org/2000/svg">
<path d="M8.50004 8.854C7.84252 8.854 7.21194 9.1152 6.74701 9.58014C6.28207 10.0451 6.02087 10.6757 6.02087 11.3332C6.02087 11.9907 6.28207 12.6213 6.74701 13.0862C7.21194 13.5511 7.84252 13.8123 8.50004 13.8123C9.15756 13.8123 9.78814 13.5511 10.2531 13.0862C10.718 12.6213 10.9792 11.9907 10.9792 11.3332C10.9792 10.6757 10.718 10.0451 10.2531 9.58014C9.78814 9.1152 9.15756 8.854 8.50004 8.854ZM7.43754 11.3332C7.43754 11.0514 7.54948 10.7811 7.74874 10.5819C7.948 10.3826 8.21825 10.2707 8.50004 10.2707C8.78183 10.2707 9.05208 10.3826 9.25134 10.5819C9.4506 10.7811 9.56254 11.0514 9.56254 11.3332C9.56254 11.615 9.4506 11.8852 9.25134 12.0845C9.05208 12.2837 8.78183 12.3957 8.50004 12.3957C8.21825 12.3957 7.948 12.2837 7.74874 12.0845C7.54948 11.8852 7.43754 11.615 7.43754 11.3332Z" fill="#575F6E"/>
<path d="M12.4142 3.62384L10.1625 0.466797L1.88275 7.08121L1.42375 7.07625V7.08334H1.0625V15.5833H15.9375V7.08334H15.2561L13.9003 3.11738L12.4142 3.62384ZM13.7594 7.08334H6.65621L11.9467 5.27992L13.0248 4.93496L13.7594 7.08334ZM11.0146 4.10126L5.55333 5.96276L9.87842 2.50751L11.0146 4.10126ZM2.47917 12.8697V9.79555C2.77801 9.68965 3.04945 9.51839 3.2737 9.29426C3.49795 9.07014 3.66936 8.79879 3.77542 8.5H13.2246C13.3306 8.79889 13.502 9.07036 13.7262 9.29461C13.9505 9.51886 14.2219 9.69024 14.5208 9.79625V12.8704C14.2219 12.9764 13.9505 13.1478 13.7262 13.3721C13.502 13.5963 13.3306 13.8678 13.2246 14.1667H3.77683C3.67071 13.8675 3.49914 13.5959 3.27464 13.3715C3.05014 13.1471 2.77837 12.9757 2.47917 12.8697Z" fill="#575F6E"/>
</svg>
