<svg width="31" height="31" viewBox="0 0 31 31" fill="none" xmlns="http://www.w3.org/2000/svg">
<circle cx="15.5" cy="15.5" r="15.5" fill="#575F6E"/>
<g clip-path="url(#clip0_2226_559)">
<path d="M15.5 15.5L15.637 15.02C15.5514 14.9956 15.4608 14.9946 15.3747 15.0169C15.2885 15.0392 15.2098 15.0842 15.1469 15.1471C15.0839 15.21 15.0388 15.2885 15.0163 15.3746C14.9938 15.4608 14.9948 15.5513 15.019 15.637L15.5 15.5ZM17.5 22.5L17.02 22.637C17.0484 22.7362 17.1068 22.8242 17.1871 22.8889C17.2675 22.9536 17.3659 22.9918 17.4688 22.9984C17.5718 23.005 17.6743 22.9795 17.7622 22.9256C17.8501 22.8716 17.9192 22.7918 17.96 22.697L17.5 22.5ZM22.5 17.5L22.697 17.96C22.7918 17.9192 22.8716 17.8501 22.9256 17.7622C22.9795 17.6743 23.005 17.5718 22.9984 17.4688C22.9918 17.3659 22.9536 17.2675 22.8889 17.1871C22.8242 17.1068 22.7362 17.0484 22.637 17.02L22.5 17.5ZM19 19L18.803 18.54C18.6848 18.5906 18.5906 18.6848 18.54 18.803L19 19ZM11.5 11.5V11H11V11.5H11.5ZM21.5 11.5H22V11H21.5V11.5ZM11.5 21.5H11V22H11.5V21.5ZM8 9H9V8H8V9ZM12 9H13V8H12V9ZM16 9H17V8H16V9ZM8 13H9V12H8V13ZM8 17H9V16H8V17ZM15.019 15.637L17.02 22.637L17.98 22.363L15.98 15.363L15.019 15.637ZM22.637 17.019L15.637 15.02L15.363 15.981L22.363 17.981L22.637 17.019ZM17.96 22.697L19.46 19.197L18.54 18.803L17.04 22.303L17.96 22.697ZM19.197 19.46L22.697 17.96L22.303 17.04L18.803 18.54L19.197 19.46ZM11.5 12H21.5V11H11.5V12ZM21 11.5V15H22V11.5H21ZM11 11.5V21.5H12V11.5H11ZM11.5 22H15V21H11.5V22Z" fill="white"/>
</g>
<defs>
<clipPath id="clip0_2226_559">
<rect width="15" height="15" fill="white" transform="translate(8 8)"/>
</clipPath>
</defs>
</svg>
