<svg width="15" height="15" viewBox="0 0 15 15" fill="none" xmlns="http://www.w3.org/2000/svg">
<path d="M7.5 7.5C6.8125 7.5 6.22396 7.25521 5.73438 6.76562C5.24479 6.27604 5 5.6875 5 5C5 4.3125 5.24479 3.72396 5.73438 3.23438C6.22396 2.74479 6.8125 2.5 7.5 2.5C8.1875 2.5 8.77604 2.74479 9.26563 3.23438C9.75521 3.72396 10 4.3125 10 5C10 5.6875 9.75521 6.27604 9.26563 6.76562C8.77604 7.25521 8.1875 7.5 7.5 7.5ZM2.5 12.5V10.75C2.5 10.3958 2.59125 10.0704 2.77375 9.77375C2.95625 9.47708 3.19833 9.25042 3.5 9.09375C4.14583 8.77083 4.80208 8.52875 5.46875 8.3675C6.13542 8.20625 6.8125 8.12542 7.5 8.125C8.1875 8.125 8.86458 8.20583 9.53125 8.3675C10.1979 8.52917 10.8542 8.77125 11.5 9.09375C11.8021 9.25 12.0444 9.47667 12.2269 9.77375C12.4094 10.0708 12.5004 10.3963 12.5 10.75V12.5H2.5Z" fill="#575F6E"/>
</svg>
