<svg width="13" height="13" viewBox="0 0 13 13" fill="none" xmlns="http://www.w3.org/2000/svg">
<g clip-path="url(#clip0_805_23)">
<path d="M11.6459 2.16655H10.2014V3.24988C10.2014 3.35421 10.1809 3.45751 10.141 3.5539C10.101 3.65029 10.0425 3.73786 9.96874 3.81164C9.89497 3.88541 9.80739 3.94393 9.71101 3.98385C9.61462 4.02377 9.51131 4.04432 9.40698 4.04432C9.30266 4.04432 9.19935 4.02377 9.10296 3.98385C9.00658 3.94393 8.919 3.88541 8.84523 3.81164C8.77146 3.73786 8.71294 3.65029 8.67301 3.5539C8.63309 3.45751 8.61254 3.35421 8.61254 3.24988V2.16655H4.40559V3.24988C4.40559 3.46058 4.32189 3.66265 4.17291 3.81164C4.02392 3.96062 3.82185 4.04432 3.61115 4.04432C3.40045 4.04432 3.19838 3.96062 3.04939 3.81164C2.90041 3.66265 2.81671 3.46058 2.81671 3.24988V2.16655H1.37226C1.28632 2.16557 1.20107 2.18183 1.12152 2.21438C1.04198 2.24693 0.969778 2.29509 0.909177 2.35603C0.848575 2.41697 0.80081 2.48944 0.768705 2.56916C0.736599 2.64888 0.720807 2.73423 0.722261 2.82016V10.9018C0.720826 10.9862 0.736035 11.0701 0.767019 11.1486C0.798003 11.2272 0.844155 11.2988 0.902839 11.3595C0.961522 11.4202 1.03159 11.4688 1.10903 11.5024C1.18648 11.536 1.26979 11.554 1.35421 11.5554H11.6459C11.7303 11.554 11.8136 11.536 11.891 11.5024C11.9685 11.4688 12.0386 11.4202 12.0972 11.3595C12.1559 11.2988 12.2021 11.2272 12.2331 11.1486C12.264 11.0701 12.2793 10.9862 12.2778 10.9018V2.82016C12.2793 2.73574 12.264 2.65187 12.2331 2.57334C12.2021 2.4948 12.1559 2.42314 12.0972 2.36244C12.0386 2.30175 11.9685 2.25321 11.891 2.2196C11.8136 2.18598 11.7303 2.16796 11.6459 2.16655ZM3.61115 9.38877H2.88893V8.66654H3.61115V9.38877ZM3.61115 7.58321H2.88893V6.86099H3.61115V7.58321ZM3.61115 5.77766H2.88893V5.05543H3.61115V5.77766ZM5.77782 9.38877H5.05559V8.66654H5.77782V9.38877ZM5.77782 7.58321H5.05559V6.86099H5.77782V7.58321ZM5.77782 5.77766H5.05559V5.05543H5.77782V5.77766ZM7.94448 9.38877H7.22226V8.66654H7.94448V9.38877ZM7.94448 7.58321H7.22226V6.86099H7.94448V7.58321ZM7.94448 5.77766H7.22226V5.05543H7.94448V5.77766ZM10.1112 9.38877H9.38893V8.66654H10.1112V9.38877ZM10.1112 7.58321H9.38893V6.86099H10.1112V7.58321ZM10.1112 5.77766H9.38893V5.05543H10.1112V5.77766Z" fill="#575F6E"/>
<path d="M3.61111 3.61106C3.70688 3.61106 3.79873 3.57301 3.86646 3.50529C3.93418 3.43757 3.97222 3.34572 3.97222 3.24995V1.08328C3.97222 0.987507 3.93418 0.895656 3.86646 0.827935C3.79873 0.760213 3.70688 0.722168 3.61111 0.722168C3.51534 0.722168 3.42349 0.760213 3.35577 0.827935C3.28805 0.895656 3.25 0.987507 3.25 1.08328V3.24995C3.25 3.34572 3.28805 3.43757 3.35577 3.50529C3.42349 3.57301 3.51534 3.61106 3.61111 3.61106Z" fill="#575F6E"/>
<path d="M9.38894 3.61106C9.48472 3.61106 9.57657 3.57301 9.64429 3.50529C9.71201 3.43757 9.75005 3.34572 9.75005 3.24995V1.08328C9.75005 0.987507 9.71201 0.895656 9.64429 0.827935C9.57657 0.760213 9.48472 0.722168 9.38894 0.722168C9.29317 0.722168 9.20132 0.760213 9.1336 0.827935C9.06588 0.895656 9.02783 0.987507 9.02783 1.08328V3.24995C9.02783 3.34572 9.06588 3.43757 9.1336 3.50529C9.20132 3.57301 9.29317 3.61106 9.38894 3.61106Z" fill="#575F6E"/>
</g>
<defs>
<clipPath id="clip0_805_23">
<rect width="13" height="13" fill="white"/>
</clipPath>
</defs>
</svg>
