<svg width="40" height="37" viewBox="0 0 40 37" fill="none" xmlns="http://www.w3.org/2000/svg">
<rect x="0.5" y="0.5" width="39" height="36" rx="4.5" stroke="#C10A0A"/>
<path d="M12.0199 11.5714H16.9583V9.64286C16.9583 9.47236 17.033 9.30885 17.1658 9.18829C17.2986 9.06773 17.4788 9 17.6667 9H23.3333C23.5212 9 23.7014 9.06773 23.8342 9.18829C23.967 9.30885 24.0417 9.47236 24.0417 9.64286V11.5714H28.9801L29 13.1786H27.5391L26.6497 25.7946C26.6272 26.1209 26.4686 26.4271 26.2061 26.651C25.9437 26.8749 25.5972 26.9997 25.237 27H15.763C15.403 27 15.0566 26.8755 14.794 26.652C14.5315 26.4285 14.3725 26.1227 14.3495 25.7967L13.4609 13.1786H12L12.0199 11.5714ZM24.0417 24.4286L24.4401 14.1429H22.9792L22.5807 24.4286H24.0417ZM19.7917 24.4286H21.2083V14.1429H19.7917V24.4286ZM18.7292 11.5714H22.2708V10.4464C22.2708 10.4038 22.2522 10.3629 22.219 10.3328C22.1858 10.3026 22.1407 10.2857 22.0938 10.2857H18.9062C18.8593 10.2857 18.8142 10.3026 18.781 10.3328C18.7478 10.3629 18.7292 10.4038 18.7292 10.4464V11.5714ZM16.9583 24.4286H18.4193L18.0208 14.1429H16.5599L16.9583 24.4286Z" fill="#C10A0A"/>
</svg>
