<svg width="12" height="12" viewBox="0 0 12 12" fill="none" xmlns="http://www.w3.org/2000/svg">
<path fill-rule="evenodd" clip-rule="evenodd" d="M10.7274 2.70767C10.775 2.77977 10.7961 2.86606 10.7874 2.95196C10.7786 3.03787 10.7405 3.11812 10.6794 3.17917L6.08295 7.77517C6.03592 7.82216 5.97725 7.85581 5.91295 7.87267L3.99845 8.37267C3.93516 8.38918 3.86866 8.38884 3.80554 8.3717C3.74243 8.35457 3.68489 8.32122 3.63864 8.27497C3.5924 8.22873 3.55905 8.17119 3.54191 8.10807C3.52477 8.04496 3.52444 7.97846 3.54095 7.91517L4.04095 6.00117C4.05554 5.94372 4.08308 5.89036 4.12145 5.84517L8.73495 1.23467C8.80526 1.16444 8.90057 1.125 8.99995 1.125C9.09932 1.125 9.19463 1.16444 9.26495 1.23467L10.6794 2.64867C10.6974 2.66667 10.7135 2.68644 10.7274 2.70767ZM9.88395 2.91367L8.99995 2.03017L4.74095 6.28917L4.42845 7.48567L5.62495 7.17317L9.88395 2.91367Z" fill="#005EC9"/>
<path d="M9.82053 8.58043C9.95719 7.41241 10.0008 6.23537 9.95103 5.06043C9.94994 5.03275 9.95458 5.00514 9.96465 4.97933C9.97471 4.95353 9.98999 4.93007 10.0095 4.91043L10.5015 4.41843C10.515 4.40491 10.532 4.39556 10.5507 4.3915C10.5693 4.38745 10.5887 4.38886 10.6066 4.39556C10.6244 4.40227 10.6399 4.41399 10.6513 4.42931C10.6626 4.44463 10.6693 4.4629 10.6705 4.48193C10.7631 5.87755 10.728 7.27871 10.5655 8.66793C10.4475 9.67893 9.63553 10.4714 8.62903 10.5839C6.8817 10.7774 5.11835 10.7774 3.37103 10.5839C2.36503 10.4714 1.55253 9.67893 1.43453 8.66793C1.22723 6.89564 1.22723 5.10522 1.43453 3.33293C1.55253 2.32193 2.36453 1.52943 3.37103 1.41693C4.69721 1.26987 6.03339 1.23425 7.36553 1.31043C7.38459 1.3118 7.40287 1.3186 7.41818 1.33004C7.4335 1.34147 7.44522 1.35705 7.45195 1.37494C7.45869 1.39283 7.46015 1.41227 7.45618 1.43097C7.45221 1.44966 7.44296 1.46683 7.42953 1.48043L6.93303 1.97643C6.91358 1.99581 6.89037 2.01099 6.86483 2.02105C6.83929 2.03111 6.81196 2.03584 6.78453 2.03493C5.67291 1.99714 4.56001 2.03975 3.45453 2.16243C3.1315 2.19819 2.82995 2.34179 2.59861 2.57006C2.36726 2.79832 2.21961 3.09791 2.17953 3.42043C1.97905 5.13459 1.97905 6.86627 2.17953 8.58043C2.21961 8.90295 2.36726 9.20254 2.59861 9.43081C2.82995 9.65907 3.1315 9.80268 3.45453 9.83843C5.13203 10.0259 6.86803 10.0259 8.54603 9.83843C8.86906 9.80268 9.1706 9.65907 9.40195 9.43081C9.6333 9.20254 9.78044 8.90295 9.82053 8.58043Z" fill="#005EC9"/>
</svg>
